<svg width="14" height="16" viewBox="0 0 14 16" fill="none" xmlns="http://www.w3.org/2000/svg">
<path d="M8.14592 6.57439C8.14592 7.65247 7.25344 7.65247 6.77248 7.65247H6.1728V5.61439H6.9264C7.34784 5.61439 8.14592 5.61439 8.14592 6.57439ZM12.7526 5.49823C12.8416 4.40127 13.1594 3.39455 13.72 2.47167L11.5699 0.320312C10.8906 0.905272 10.1174 1.22911 9.24064 1.28639C8.45178 1.36218 7.65816 1.20249 6.96 0.827513C6.22368 1.19423 5.46528 1.34751 4.67456 1.28639C3.85664 1.21311 3.11872 0.923192 2.4576 0.409272L0.30144 2.55967C0.832 3.49578 1.12661 4.4753 1.18528 5.49823C1.2128 5.96927 1.0784 6.61759 0.77696 7.45567C0.6192 7.92031 0.499841 8.32351 0.418561 8.66015C0.343361 8.99455 0.29632 9.26655 0.28064 9.47007C0.26944 10.3632 0.520001 11.1696 1.0336 11.8861C1.43488 12.4093 2.09664 12.9869 3.01568 13.6189C4.02112 14.1309 4.79936 14.4634 5.34432 14.6048L5.79616 14.8147C5.93824 14.8832 6.09056 14.9494 6.2496 15.0218C6.59232 15.2272 6.83328 15.4502 6.96 15.68C7.11552 15.4314 7.3616 15.2141 7.68864 15.0218C7.88499 14.9377 8.07949 14.8493 8.272 14.7568C8.4288 14.688 8.5456 14.6362 8.61344 14.6045C8.76186 14.5328 8.91313 14.4671 9.06688 14.4077C9.25344 14.3344 9.48352 14.2445 9.7584 14.1453C10.2896 13.9568 10.6762 13.7792 10.9219 13.6186C11.8131 12.9866 12.4646 12.4186 12.8794 11.9101C13.4112 11.1904 13.6694 10.3805 13.6576 9.46975C13.6262 9.06207 13.4538 8.40959 13.1405 7.52063C12.8416 6.65535 12.7091 5.98335 12.7526 5.49823ZM8.80064 8.44543C8.29024 8.77951 7.58848 8.77951 7.22208 8.77951H6.21568V11.5334H4.7024V4.46911H6.85056C7.84896 4.46911 8.68384 4.53343 9.26368 5.24031C9.6256 5.69023 9.68672 6.20127 9.68672 6.56447C9.68608 7.38719 9.3472 8.08159 8.80064 8.44543Z" fill="#FFFFFF"/>
</svg>
